<svg width="1024" height="1024" viewBox="0 0 1024 1024" fill="none" xmlns="http://www.w3.org/2000/svg">
<path d="M512 0C794.77 0 1024 229.23 1024 512C1024 794.77 794.77 1024 512 1024C229.23 1024 0 794.77 0 512C0 229.23 229.23 0 512 0ZM512 62C263.472 62 62 263.472 62 512C62 760.528 263.472 962 512 962C760.528 962 962 760.528 962 512C962 263.472 760.528 62 512 62Z" fill="black"/>
<mask id="mask0_342_146" style="mask-type:luminance" maskUnits="userSpaceOnUse" x="0" y="0" width="1024" height="1024">
<path fill-rule="evenodd" clip-rule="evenodd" d="M1024 318.915C1024 306.759 1024 294.602 1023.93 282.444C1023.87 272.203 1023.75 261.964 1023.47 251.728C1022.87 229.417 1021.56 206.916 1017.59 184.854C1013.56 162.474 1006.99 141.645 996.637 121.31C986.456 101.323 973.158 83.0344 957.291 67.1786C941.428 51.3228 923.134 38.0333 903.14 27.8592C882.785 17.5011 861.933 10.9322 839.528 6.90949C817.464 2.94772 794.956 1.63417 772.646 1.03145C762.402 0.754327 752.158 0.637512 741.912 0.574134C729.749 0.499571 717.585 0.505785 705.421 0.505785L564.19 0H458.56L319.827 0.505785C307.64 0.505785 295.453 0.499571 283.266 0.574134C272.998 0.637512 262.736 0.754327 252.473 1.03145C230.11 1.63417 207.551 2.94896 185.435 6.9157C163 10.9371 142.117 17.5036 121.735 27.8542C101.698 38.0295 83.3647 51.3204 67.4679 67.1786C51.5737 83.0332 38.2506 101.318 28.0517 121.301C17.6676 141.646 11.0837 162.487 7.04989 184.88C3.07819 206.933 1.76216 229.427 1.15696 251.728C0.881081 261.965 0.761781 272.204 0.699645 282.444C0.625083 294.603 0 309.705 0 321.863L0.00372813 458.673L0 565.435L0.631296 705.152C0.631296 717.326 0.626325 729.499 0.699645 741.673C0.761781 751.928 0.881081 762.18 1.15821 772.431C1.76216 794.77 3.08068 817.304 7.0561 839.396C11.0887 861.806 17.6713 882.665 28.0467 903.026C38.2469 923.041 51.5724 941.353 67.4679 957.232C83.3634 973.11 101.692 986.417 121.725 996.606C142.12 1006.98 163.012 1013.55 185.461 1017.58C207.567 1021.55 230.119 1022.87 252.473 1023.47C262.736 1023.75 273 1023.86 283.267 1023.93C295.454 1024 307.64 1024 319.827 1024L459.814 1024H565.706L705.421 1023.99C717.585 1023.99 729.749 1024 741.912 1023.93C752.158 1023.86 762.402 1023.75 772.646 1023.47C794.965 1022.87 817.48 1021.55 839.554 1017.58C861.946 1013.55 882.787 1006.97 903.132 996.609C923.129 986.422 941.427 973.112 957.291 957.232C973.156 941.356 986.453 923.046 996.633 903.034C1006.99 882.664 1013.57 861.795 1017.59 839.37C1021.56 817.287 1022.87 794.762 1023.47 772.431C1023.75 762.179 1023.87 751.926 1023.93 741.673C1024.01 729.499 1024 717.326 1024 705.152C1024 705.152 1023.99 567.902 1023.99 565.435V458.561C1023.99 456.74 1024 318.915 1024 318.915Z" fill="white"/>
</mask>
<g mask="url(#mask0_342_146)">
<path d="M460.038 160C483.132 120 540.868 120 563.962 160L784.798 542.502C807.892 582.502 779.025 632.502 732.837 632.502H291.163C244.975 632.502 216.108 582.502 239.202 542.502L460.038 160Z" fill="black" fill-opacity="0.9"/>
<path d="M468.911 408.619C488.156 375.285 536.269 375.285 555.514 408.619L724.573 701.439C743.818 734.773 719.762 776.439 681.272 776.439H343.153C304.663 776.439 280.607 734.773 299.852 701.439L468.911 408.619Z" fill="black" fill-opacity="0.8"/>
<ellipse cx="414.021" cy="489.364" rx="75" ry="75.0003" fill="#D9D9D9"/>
<ellipse cx="610.297" cy="489.364" rx="75" ry="75.0003" fill="#D9D9D9"/>
<ellipse cx="441.947" cy="489.044" rx="27.9255" ry="27.7661" fill="black"/>
<ellipse cx="582.691" cy="489.044" rx="27.9255" ry="27.7661" fill="black"/>
<rect x="336" y="732" width="100" height="200" rx="50" fill="black" fill-opacity="0.7"/>
<rect x="462" y="732" width="100" height="200" rx="50" fill="black" fill-opacity="0.7"/>
<rect x="588" y="732" width="100" height="200" rx="50" fill="black" fill-opacity="0.7"/>
</g>
</svg>
